<?xml version="1.0" encoding="UTF-8" standalone="no"?>
<svg
   xmlns:dc="http://purl.org/dc/elements/1.1/"
   xmlns:cc="http://creativecommons.org/ns#"
   xmlns:rdf="http://www.w3.org/1999/02/22-rdf-syntax-ns#"
   xmlns:svg="http://www.w3.org/2000/svg"
   xmlns="http://www.w3.org/2000/svg"
   id="svg24"
   height="19.4mm"
   width="19.360001mm"
   version="1.0">
  <metadata
     id="metadata28">
    <rdf:RDF>
      <cc:Work
         rdf:about="">
        <dc:format>image/svg+xml</dc:format>
        <dc:type
           rdf:resource="http://purl.org/dc/dcmitype/StillImage" />
      </cc:Work>
    </rdf:RDF>
  </metadata>
  <defs
     id="defs6">
    <clipPath
       id="clipEmfPath1"
       clipPathUnits="userSpaceOnUse">
      <path
         id="path2"
         d="M 0,0 L 73.116202,0 L 73.116202,73.276194 L 0,73.276194 z" />
    </clipPath>
    <pattern
       y="0"
       x="0"
       height="6"
       width="6"
       patternUnits="userSpaceOnUse"
       id="EMFhbasepattern" />
  </defs>
  <path
     id="path8"
     d="  M 13.239312,13.839281   L 17.869072,18.339047   L 21.56888,22.098852   C 23.138798,23.958756 23.278791,27.328581 21.988858,28.868501   L 7.9095892,47.117553   L 0.079995845,39.197964   L 13.409304,21.898863   C 15.539193,18.699029 15.069217,16.229157 13.239312,13.839281   z "
     style="fill:#ed1c24;fill-rule:evenodd;fill-opacity:1;stroke:none;" />
  <path
     id="path10"
     d="  M 13.319308,13.919277   L 17.949068,18.419043   L 21.648876,22.178848   C 23.218794,24.038751 23.358787,27.408576 22.068854,28.948496   L 7.989585,47.197549   L 0.15999169,39.27796   L 13.489299,21.978858   C 15.619189,18.779025 15.149213,16.309153 13.319308,13.919277   z "
     clip-path="url(#clipEmfPath1)"
     style="fill:none;stroke:#ed1c24;stroke-width:0.089995325px;stroke-linecap:butt;stroke-linejoin:miter;stroke-miterlimit:8;stroke-dasharray:none;stroke-opacity:1;" />
  <path
     id="path12"
     d="  M 59.696899,59.116929   L 54.987144,54.647162   L 51.237339,50.897356   C 49.66742,49.067451 49.517428,45.657629 50.787362,44.107709   L 64.796634,25.678666   L 72.716223,33.598255   L 59.446912,51.037349   C 57.357021,54.247182 57.836996,56.757052 59.696899,59.116929   z "
     style="fill:#2e3192;fill-rule:evenodd;fill-opacity:1;stroke:none;" />
  <path
     id="path14"
     d="  M 59.776895,59.196925   L 55.06714,54.727157   L 51.317335,50.977352   C 49.747416,49.147447 49.597424,45.737624 50.867358,44.187705   L 64.87663,25.758662   L 72.796219,33.678251   L 59.526908,51.117345   C 57.437017,54.327178 57.916992,56.837048 59.776895,59.196925   z "
     clip-path="url(#clipEmfPath1)"
     style="fill:none;stroke:#2e3192;stroke-width:0.089995325px;stroke-linecap:butt;stroke-linejoin:miter;stroke-miterlimit:8;stroke-dasharray:none;stroke-opacity:1;" />
  <path
     id="path16"
     d="  M 34.338216,34.508208   C 35.908135,36.368111 36.048128,40.23791 34.758195,41.78783   L 20.698925,60.07688   L 12.879331,52.127293   L 26.18864,34.818192   C 28.348528,31.75835 27.758558,28.328529 25.378682,25.738663   C 23.778765,23.918758 23.778765,20.088957 25.0387,18.549037   L 38.877981,0.079995845   L 46.797569,7.9295881   L 33.69825,25.40868   C 31.56836,28.718508 32.068334,31.278375 34.338216,34.508208   z "
     style="fill:#ed1c24;fill-rule:evenodd;fill-opacity:1;stroke:none;" />
  <path
     id="path18"
     d="  M 34.418212,34.588204   C 35.988131,36.448107 36.128124,40.317906 34.838191,41.867825   L 20.778921,60.156875   L 12.959327,52.207288   L 26.268636,34.898187   C 28.428523,31.838346 27.838554,28.408524 25.458678,25.818659   C 23.858761,23.998754 23.858761,20.168952 25.118695,18.629032   L 38.957977,0.15999169   L 46.877565,8.009584   L 33.778246,25.488676   C 31.648356,28.798504 32.14833,31.358371 34.418212,34.588204   z "
     clip-path="url(#clipEmfPath1)"
     style="fill:none;stroke:#ed1c24;stroke-width:0.089995325px;stroke-linecap:butt;stroke-linejoin:miter;stroke-miterlimit:8;stroke-dasharray:none;stroke-opacity:1;" />
  <path
     id="path20"
     d="  M 47.297543,47.307543   C 48.867462,49.137448 49.007455,53.037245 47.717522,54.587165   L 33.658252,72.876215   L 25.838658,64.926628   L 39.147967,47.617527   C 41.307854,44.527687 40.717885,41.127864 38.338009,38.537998   C 36.738092,36.688094 36.738092,32.888292 37.998026,31.348372   L 51.837308,12.879331   L 59.756896,20.728923   L 46.657577,38.208015   C 44.527687,41.517844 45.027661,44.077711 47.297543,47.307543   z "
     style="fill:#2e3192;fill-rule:evenodd;fill-opacity:1;stroke:none;" />
  <path
     id="path22"
     d="  M 47.377539,47.387539   C 48.947458,49.217444 49.08745,53.117241 47.797517,54.667161   L 33.738248,72.956211   L 25.918654,65.006624   L 39.227963,47.697523   C 41.38785,44.607683 40.797881,41.20786 38.418005,38.617994   C 36.818088,36.76809 36.818088,32.968288 38.078022,31.428368   L 51.917303,12.959327   L 59.836892,20.808919   L 46.737572,38.288011   C 44.607683,41.597839 45.107657,44.157706 47.377539,47.387539   z "
     clip-path="url(#clipEmfPath1)"
     style="fill:none;stroke:#2e3192;stroke-width:0.089995325px;stroke-linecap:butt;stroke-linejoin:miter;stroke-miterlimit:8;stroke-dasharray:none;stroke-opacity:1;" />
</svg>
